<mxfile host="app.diagrams.net" agent="Mozilla/5.0 (Windows NT 10.0; Win64; x64) AppleWebKit/537.36 (KHTML, like Gecko) Chrome/127.0.0.0 Safari/537.36" version="24.7.7">
  <diagram name="Page-1" id="VnxqMwNDB-gfd3Vyn0yv">
    <mxGraphModel dx="1638" dy="803" grid="1" gridSize="10" guides="1" tooltips="1" connect="1" arrows="1" fold="1" page="1" pageScale="1" pageWidth="1169" pageHeight="827" math="0" shadow="0">
      <root>
        <mxCell id="0" />
        <mxCell id="1" parent="0" />
        <mxCell id="7o61B-lWUKbeZZ_4rg1I-1" value="" style="whiteSpace=wrap;html=1;aspect=fixed;" parent="1" vertex="1">
          <mxGeometry x="120" y="160" width="270" height="270" as="geometry" />
        </mxCell>
        <mxCell id="7o61B-lWUKbeZZ_4rg1I-2" value="&lt;h1 style=&quot;margin-top: 0px;&quot;&gt;Room&lt;/h1&gt;&lt;p&gt;createRoom( { room constructor params} );&lt;/p&gt;&lt;p&gt;getRoomsAvailable({ timeRange })&lt;/p&gt;&lt;p&gt;getRoomDetails ( RoomID )&lt;/p&gt;&lt;p&gt;deleteRoom(RoomID)&lt;/p&gt;&lt;p&gt;modifyRoom( RoomObj, RoomID )&lt;/p&gt;&lt;p&gt;getDefaultAmenities()&lt;/p&gt;" style="text;html=1;whiteSpace=wrap;overflow=hidden;rounded=0;" parent="1" vertex="1">
          <mxGeometry x="135" y="185" width="210" height="235" as="geometry" />
        </mxCell>
        <mxCell id="7o61B-lWUKbeZZ_4rg1I-3" value="" style="whiteSpace=wrap;html=1;aspect=fixed;" parent="1" vertex="1">
          <mxGeometry x="440" y="160" width="240" height="240" as="geometry" />
        </mxCell>
        <mxCell id="7o61B-lWUKbeZZ_4rg1I-5" value="&lt;h1 style=&quot;margin-top: 0px;&quot;&gt;EmployeeDao&lt;/h1&gt;&lt;p&gt;getUserType( Emp Obj )&lt;/p&gt;&lt;p&gt;getUserType ( empID&amp;nbsp;&lt;span style=&quot;background-color: initial;&quot;&gt;)&lt;/span&gt;&lt;/p&gt;&lt;p&gt;createUser( { constructor Params } )&amp;nbsp;&lt;/p&gt;&lt;p&gt;removeUser( empID )&lt;/p&gt;&lt;p&gt;doesEmpExists( empID )&lt;/p&gt;" style="text;html=1;whiteSpace=wrap;overflow=hidden;rounded=0;" parent="1" vertex="1">
          <mxGeometry x="460" y="180" width="200" height="200" as="geometry" />
        </mxCell>
        <mxCell id="7o61B-lWUKbeZZ_4rg1I-6" value="Poji For Room POJO" style="text;html=1;align=center;verticalAlign=middle;whiteSpace=wrap;rounded=0;fillColor=#666600;strokeColor=#000000;" parent="1" vertex="1">
          <mxGeometry x="120" y="120" width="270" height="40" as="geometry" />
        </mxCell>
        <mxCell id="7o61B-lWUKbeZZ_4rg1I-7" value="Impl Class for Abstract Class Children" style="text;html=1;align=center;verticalAlign=middle;whiteSpace=wrap;rounded=0;fillColor=#666600;strokeColor=#000000;" parent="1" vertex="1">
          <mxGeometry x="440" y="120" width="240" height="40" as="geometry" />
        </mxCell>
        <mxCell id="7o61B-lWUKbeZZ_4rg1I-8" value="" style="whiteSpace=wrap;html=1;aspect=fixed;" parent="1" vertex="1">
          <mxGeometry x="320" y="480" width="240" height="240" as="geometry" />
        </mxCell>
        <mxCell id="7o61B-lWUKbeZZ_4rg1I-9" value="&lt;h1 style=&quot;margin-top: 0px;&quot;&gt;AdminDao&lt;/h1&gt;&lt;p&gt;addUser( { Information } )&lt;/p&gt;&lt;p&gt;addRoom()&lt;/p&gt;&lt;p&gt;modifyRoom()&lt;/p&gt;&lt;p&gt;importUsers()&lt;/p&gt;&lt;p&gt;&lt;br&gt;&lt;/p&gt;" style="text;html=1;whiteSpace=wrap;overflow=hidden;rounded=0;" parent="1" vertex="1">
          <mxGeometry x="340" y="500" width="200" height="200" as="geometry" />
        </mxCell>
        <mxCell id="7o61B-lWUKbeZZ_4rg1I-10" value="POJI FOR POJO" style="text;html=1;align=center;verticalAlign=middle;whiteSpace=wrap;rounded=0;fillColor=#666600;strokeColor=#000000;" parent="1" vertex="1">
          <mxGeometry x="320" y="440" width="240" height="40" as="geometry" />
        </mxCell>
        <mxCell id="7o61B-lWUKbeZZ_4rg1I-11" value="" style="whiteSpace=wrap;html=1;aspect=fixed;" parent="1" vertex="1">
          <mxGeometry x="600" y="480" width="260" height="260" as="geometry" />
        </mxCell>
        <mxCell id="7o61B-lWUKbeZZ_4rg1I-12" value="&lt;h1 style=&quot;margin-top: 0px;&quot;&gt;ManagerDao&lt;/h1&gt;&lt;p&gt;getRoomsInSlot({ typeOfRoom,&amp;nbsp; timeRange} )&amp;nbsp;&lt;/p&gt;&lt;p&gt;getMembersInSlot( { timeRange } )&lt;/p&gt;&lt;p&gt;requestRoom( Room, Slot, MemberList )&lt;/p&gt;&lt;p&gt;checkMeetings()&lt;/p&gt;&lt;p&gt;checkCredits()&lt;/p&gt;&lt;p&gt;modifyCredits()&lt;/p&gt;&lt;p&gt;&lt;br&gt;&lt;/p&gt;" style="text;html=1;whiteSpace=wrap;overflow=hidden;rounded=0;" parent="1" vertex="1">
          <mxGeometry x="620" y="500" width="200" height="230" as="geometry" />
        </mxCell>
        <mxCell id="7o61B-lWUKbeZZ_4rg1I-13" value="POJI FOR POJO" style="text;html=1;align=center;verticalAlign=middle;whiteSpace=wrap;rounded=0;fillColor=#666600;strokeColor=#000000;" parent="1" vertex="1">
          <mxGeometry x="600" y="440" width="260" height="40" as="geometry" />
        </mxCell>
        <mxCell id="7o61B-lWUKbeZZ_4rg1I-15" value="" style="whiteSpace=wrap;html=1;aspect=fixed;" parent="1" vertex="1">
          <mxGeometry x="880" y="480" width="240" height="240" as="geometry" />
        </mxCell>
        <mxCell id="7o61B-lWUKbeZZ_4rg1I-16" value="&lt;h1 style=&quot;margin-top: 0px;&quot;&gt;MemberDao&lt;/h1&gt;&lt;p&gt;getMeetings( { self.iD }&amp;nbsp; )&lt;/p&gt;&lt;p&gt;&lt;br&gt;&lt;/p&gt;&lt;p&gt;&lt;br&gt;&lt;/p&gt;" style="text;html=1;whiteSpace=wrap;overflow=hidden;rounded=0;" parent="1" vertex="1">
          <mxGeometry x="910" y="515" width="200" height="200" as="geometry" />
        </mxCell>
        <mxCell id="7o61B-lWUKbeZZ_4rg1I-17" value="POJI FOR POJO" style="text;html=1;align=center;verticalAlign=middle;whiteSpace=wrap;rounded=0;fillColor=#666600;strokeColor=#000000;" parent="1" vertex="1">
          <mxGeometry x="880" y="440" width="240" height="40" as="geometry" />
        </mxCell>
        <mxCell id="7o61B-lWUKbeZZ_4rg1I-18" value="" style="whiteSpace=wrap;html=1;aspect=fixed;" parent="1" vertex="1">
          <mxGeometry x="600" y="840" width="240" height="240" as="geometry" />
        </mxCell>
        <mxCell id="7o61B-lWUKbeZZ_4rg1I-19" value="&lt;h1 style=&quot;margin-top: 0px;&quot;&gt;MeetingDao&lt;/h1&gt;&lt;div&gt;bookMeeting( RoomID, empID, listOfAmenities listOfUsers )&lt;/div&gt;&lt;div&gt;&lt;br&gt;&lt;/div&gt;&lt;div&gt;calculateRate()&lt;/div&gt;&lt;div&gt;&lt;br&gt;&lt;/div&gt;&lt;div&gt;&lt;br&gt;&lt;/div&gt;" style="text;html=1;whiteSpace=wrap;overflow=hidden;rounded=0;" parent="1" vertex="1">
          <mxGeometry x="620" y="851" width="200" height="200" as="geometry" />
        </mxCell>
        <mxCell id="7o61B-lWUKbeZZ_4rg1I-20" value="POJI FOR POJO" style="text;html=1;align=center;verticalAlign=middle;whiteSpace=wrap;rounded=0;fillColor=#666600;strokeColor=#000000;" parent="1" vertex="1">
          <mxGeometry x="600" y="800" width="240" height="40" as="geometry" />
        </mxCell>
        <mxCell id="7o61B-lWUKbeZZ_4rg1I-28" value="" style="rounded=1;whiteSpace=wrap;html=1;" parent="1" vertex="1">
          <mxGeometry x="1.25" y="605" width="237.5" height="470" as="geometry" />
        </mxCell>
        <mxCell id="7o61B-lWUKbeZZ_4rg1I-27" value="&lt;h1 style=&quot;margin-top: 0px;&quot;&gt;Exceptions&lt;/h1&gt;&lt;div&gt;&lt;br&gt;&lt;/div&gt;&lt;div&gt;ApplicationDefinedExceptions -&amp;gt; Exceptions&lt;/div&gt;&lt;div&gt;&lt;ul&gt;&lt;li&gt;Unauthorized Access&lt;/li&gt;&lt;li&gt;Invalid Credentials&lt;/li&gt;&lt;ul&gt;&lt;li&gt;Validation Failure&lt;/li&gt;&lt;li&gt;UserNotFound&lt;/li&gt;&lt;/ul&gt;&lt;li&gt;InsufficientCredits&lt;/li&gt;&lt;li&gt;RoomNotFound&lt;/li&gt;&lt;li&gt;AlreadyOccupied&lt;/li&gt;&lt;/ul&gt;&lt;/div&gt;&lt;p&gt;\&lt;/p&gt;&lt;p&gt;Validation : Username, Password, Credits, IntersectingDateTimes&lt;/p&gt;&lt;p&gt;&lt;br&gt;&lt;/p&gt;" style="text;html=1;whiteSpace=wrap;overflow=hidden;rounded=0;" parent="1" vertex="1">
          <mxGeometry x="30" y="650" width="180" height="380" as="geometry" />
        </mxCell>
        <mxCell id="0Y_VcxRZBRjfH6uMldP3-6" value="&lt;h1 style=&quot;margin-top: 0px;&quot;&gt;1, Join Query at the Java App 2. MySQL View&amp;nbsp;&lt;/h1&gt;" style="text;html=1;whiteSpace=wrap;overflow=hidden;rounded=0;" vertex="1" parent="1">
          <mxGeometry x="840" y="120" width="180" height="120" as="geometry" />
        </mxCell>
      </root>
    </mxGraphModel>
  </diagram>
</mxfile>
